<svg width="640" height="640" viewBox="0 0 640 640" fill="none" xmlns="http://www.w3.org/2000/svg">
  <rect width="640" height="640" rx="56" fill="url(#paint0_linear)"/>
  <circle cx="174" cy="116" r="60" fill="#FFD9B8" opacity="0.9"/>
  <circle cx="488" cy="128" r="48" fill="#FBCFE8" opacity="0.9"/>
  <circle cx="510" cy="480" r="74" fill="#D6F4FF" opacity="0.9"/>
  <path d="M120 500C120 456 156 420 200 420H440C484 420 520 456 520 500V548H120V500Z" fill="#FFF7E7"/>
  <rect x="248" y="160" width="144" height="190" rx="68" fill="#FFCFAD"/>
  <path d="M244 196C244 151 281 114 326 114H338C383 114 420 151 420 196V209C420 242 397 265 368 272V284H296V272C267 265 244 242 244 209V196Z" fill="#4B2C2A"/>
  <path d="M262 201C283 171 359 171 380 201" stroke="#2F1B1B" stroke-width="18" stroke-linecap="round"/>
  <circle cx="291" cy="218" r="10" fill="#2F1B1B"/>
  <circle cx="350" cy="218" r="10" fill="#2F1B1B"/>
  <path d="M301 246C309 256 331 256 339 246" stroke="#C66D58" stroke-width="6" stroke-linecap="round"/>
  <circle cx="272" cy="256" r="8" fill="#F59E0B" opacity="0.35"/>
  <circle cx="368" cy="256" r="8" fill="#F59E0B" opacity="0.35"/>
  <path d="M230 348C250 320 278 304 320 304C362 304 390 320 410 348L448 458H192L230 348Z" fill="#8B5CF6"/>
  <path d="M206 380H434" stroke="#C4B5FD" stroke-width="18" stroke-linecap="round"/>
  <path d="M220 390H420" stroke="#A78BFA" stroke-width="8" stroke-linecap="round"/>
  <rect x="118" y="366" width="84" height="126" rx="16" fill="#60A5FA"/>
  <rect x="122" y="372" width="76" height="36" rx="10" fill="#DBEAFE"/>
  <rect x="104" y="250" width="50" height="170" rx="14" fill="#F59E0B"/>
  <rect x="104" y="268" width="50" height="8" rx="4" fill="#FFF7E7"/>
  <rect x="104" y="302" width="50" height="8" rx="4" fill="#FFF7E7"/>
  <rect x="104" y="336" width="50" height="8" rx="4" fill="#FFF7E7"/>
  <rect x="104" y="370" width="50" height="8" rx="4" fill="#FFF7E7"/>
  <rect x="494" y="344" width="52" height="138" rx="18" fill="#FDBA74"/>
  <path d="M476 336L544 336" stroke="#FB7185" stroke-width="12" stroke-linecap="round"/>
  <path d="M488 294L532 294" stroke="#38BDF8" stroke-width="10" stroke-linecap="round"/>
  <path d="M494 270L526 270" stroke="#A78BFA" stroke-width="10" stroke-linecap="round"/>
  <circle cx="475" cy="430" r="44" fill="#F9A8D4"/>
  <path d="M458 430H492" stroke="#5B21B6" stroke-width="8" stroke-linecap="round"/>
  <path d="M475 413V447" stroke="#5B21B6" stroke-width="8" stroke-linecap="round"/>
  <text x="52" y="82" fill="#4338CA" font-family="Baloo 2, Arial" font-size="34" font-weight="700">Learn with Joy</text>
  <defs>
    <linearGradient id="paint0_linear" x1="56" y1="40" x2="584" y2="600" gradientUnits="userSpaceOnUse">
      <stop stop-color="#E9D5FF"/>
      <stop offset="0.49" stop-color="#FBCFE8"/>
      <stop offset="1" stop-color="#DBEAFE"/>
    </linearGradient>
  </defs>
</svg>