<svg width="640" height="640" viewBox="0 0 640 640" fill="none" xmlns="http://www.w3.org/2000/svg">
  <rect width="640" height="640" rx="56" fill="url(#paint0_linear)"/>
  <circle cx="140" cy="140" r="50" fill="#FDE68A" opacity="0.9"/>
  <circle cx="520" cy="150" r="60" fill="#F9A8D4" opacity="0.9"/>
  <circle cx="490" cy="494" r="70" fill="#C7F9CC" opacity="0.9"/>
  <path d="M110 540C110 493 148 455 195 455H445C492 455 530 493 530 540V560H110V540Z" fill="#FFF8F0"/>
  <circle cx="270" cy="210" r="70" fill="#FFD8BE"/>
  <path d="M226 182C236 153 263 136 293 136H299C336 136 366 165 366 202V220C366 246 349 266 325 273V283H245V272C226 264 214 248 214 228V214C214 203 216 193 220 182H226Z" fill="#2E1B18"/>
  <circle cx="248" cy="208" r="10" fill="#2E1B18"/>
  <circle cx="301" cy="208" r="10" fill="#2E1B18"/>
  <path d="M255 238C266 252 291 252 303 238" stroke="#C86B53" stroke-width="6" stroke-linecap="round"/>
  <path d="M214 316C216 288 239 266 268 266H272C301 266 324 288 326 316L335 454H204L214 316Z" fill="#38BDF8"/>
  <path d="M204 332H334" stroke="#BAE6FD" stroke-width="16" stroke-linecap="round"/>
  <path d="M220 342H318" stroke="#7DD3FC" stroke-width="8" stroke-linecap="round"/>
  <rect x="184" y="384" width="60" height="110" rx="18" fill="#8B5CF6"/>
  <rect x="294" y="384" width="60" height="110" rx="18" fill="#F59E0B"/>
  <rect x="192" y="496" width="52" height="26" rx="10" fill="#1E1B4B"/>
  <rect x="302" y="496" width="52" height="26" rx="10" fill="#1E1B4B"/>
  <circle cx="400" cy="300" r="64" fill="#FDE68A"/>
  <path d="M370 300H430" stroke="#1E1B4B" stroke-width="10" stroke-linecap="round"/>
  <path d="M400 270V330" stroke="#1E1B4B" stroke-width="10" stroke-linecap="round"/>
  <path d="M392 204C407 182 441 182 456 204" stroke="#8B5CF6" stroke-width="18" stroke-linecap="round"/>
  <text x="56" y="82" fill="#5B21B6" font-family="Baloo 2, Arial" font-size="34" font-weight="700">Play and Learn</text>
  <defs>
    <linearGradient id="paint0_linear" x1="60" y1="46" x2="584" y2="594" gradientUnits="userSpaceOnUse">
      <stop stop-color="#DBEAFE"/>
      <stop offset="0.5" stop-color="#FBCFE8"/>
      <stop offset="1" stop-color="#FEF3C7"/>
    </linearGradient>
  </defs>
</svg>